<?xml version="1.0" encoding="iso-8859-1"?>
<!-- Generator: Adobe Illustrator 19.0.0, SVG Export Plug-In . SVG Version: 6.00 Build 0)  -->
<svg version="1.1" id="Layer_1" xmlns="http://www.w3.org/2000/svg" xmlns:xlink="http://www.w3.org/1999/xlink" x="0px" y="0px"
	 viewBox="0 0 512.016 512.016" style="enable-background:new 0 0 512.016 512.016;" xml:space="preserve">
<g>
	<rect x="247.993" y="177.586" style="fill:#CCCCCC;" width="15.999" height="187.129"/>
	<polygon style="fill:#CCCCCC;" points="445.449,364.676 429.451,364.676 429.451,280.522 82.574,280.522 82.574,364.676 
		66.575,364.676 66.575,264.524 445.449,264.524 	"/>
</g>
<path style="fill:#E21B1B;" d="M280.638,108.184V93.433c24.006-13.591,32.453-44.077,18.855-68.083
	C285.902,1.344,255.416-7.103,231.41,6.496s-32.453,44.077-18.855,68.083c4.464,7.879,10.975,14.399,18.855,18.855v14.751
	c-46.556,2.176-70.227,33.653-70.227,54.812v17.375h189.681v-17.375C350.865,141.837,327.195,110.36,280.638,108.184z"/>
<g>
	<path style="fill:#333333;" d="M445.977,101.416v-9.199c14.967-8.479,20.23-27.486,11.751-42.453
		c-8.479-14.967-27.486-20.23-42.453-11.751c-14.967,8.479-20.23,27.486-11.751,42.453c2.784,4.912,6.839,8.975,11.751,11.751v9.199
		c-29.03,1.36-43.789,20.982-43.789,34.181v10.831h118.279V135.59C489.766,122.431,475.007,102.768,445.977,101.416z"/>
	<path style="fill:#333333;" d="M96.525,101.416v-9.199c14.967-8.479,20.23-27.486,11.751-42.453S80.79,29.534,65.823,38.013
		s-20.23,27.486-11.751,42.453c2.784,4.912,6.839,8.975,11.751,11.751v9.199c-29.03,1.36-43.789,20.982-43.789,34.181v10.831
		h118.279V135.59C140.313,122.431,125.554,102.768,96.525,101.416z"/>
	<rect x="197.757" y="395.489" style="fill:#333333;" width="116.527" height="116.527"/>
</g>
<rect x="16.307" y="395.489" style="fill:#E21B1B;" width="116.527" height="116.527"/>
<rect x="379.183" y="395.489" style="fill:#BBBBBB;" width="116.527" height="116.527"/>
<g>
</g>
<g>
</g>
<g>
</g>
<g>
</g>
<g>
</g>
<g>
</g>
<g>
</g>
<g>
</g>
<g>
</g>
<g>
</g>
<g>
</g>
<g>
</g>
<g>
</g>
<g>
</g>
<g>
</g>
</svg>
