<?xml version="1.0" encoding="iso-8859-1"?>
<!-- Generator: Adobe Illustrator 19.0.0, SVG Export Plug-In . SVG Version: 6.00 Build 0)  -->
<svg version="1.1" id="Layer_1" xmlns="http://www.w3.org/2000/svg" xmlns:xlink="http://www.w3.org/1999/xlink" x="0px" y="0px"
	 viewBox="0 0 512 512" style="enable-background:new 0 0 512 512;" xml:space="preserve">
<rect x="38.4" y="12.8" style="fill:#6FB0B6;" width="51.2" height="435.2"/>
<rect x="89.6" y="345.6" style="fill:#FEDEA1;" width="76.8" height="102.4"/>
<rect x="89.6" y="12.8" style="fill:#A9D0D3;" width="76.8" height="332.8"/>
<rect x="371.2" y="243.2" style="fill:#A7B0C0;" width="102.4" height="102.4"/>
<rect x="268.8" y="140.8" style="fill:#BDC4D0;" width="102.4" height="102.4"/>
<rect x="371.2" y="140.8" style="fill:#D3D7DF;" width="102.4" height="102.4"/>
<rect x="268.8" y="345.6" style="fill:#6D7584;" width="102.4" height="102.4"/>
<rect x="166.4" y="12.8" style="fill:#8CC0C5;" width="51.2" height="435.2"/>
<rect x="268.8" y="243.2" style="fill:#919CB0;" width="102.4" height="102.4"/>
<rect x="371.2" y="345.6" style="fill:#6D7584;" width="102.4" height="102.4"/>
<g>
	<path style="fill:#573A32;" d="M499.2,486.4H12.8c-7.074,0-12.8,5.726-12.8,12.8c0,7.074,5.726,12.8,12.8,12.8h486.4
		c7.074,0,12.8-5.726,12.8-12.8C512,492.126,506.274,486.4,499.2,486.4z"/>
	<path style="fill:#573A32;" d="M256,128v332.8h230.4V128H256z M358.4,435.2h-76.8v-76.8h76.8V435.2z M358.4,332.8h-76.8V256h76.8
		V332.8z M358.4,230.4h-76.8v-76.8h76.8V230.4z M460.8,435.2H384v-76.8h76.8V435.2z M460.8,332.8H384V256h76.8V332.8z M460.8,230.4
		H384v-76.8h76.8V230.4z"/>
	<path style="fill:#573A32;" d="M230.4,460.8V0H25.6v460.8H230.4z M76.8,435.2H51.2V25.6h25.6V435.2z M153.6,435.2h-51.2v-76.8h51.2
		V435.2z M153.6,332.8h-51.2V25.6h51.2V332.8z M179.2,25.6h25.6v409.6h-25.6V25.6z"/>
</g>
<g>
</g>
<g>
</g>
<g>
</g>
<g>
</g>
<g>
</g>
<g>
</g>
<g>
</g>
<g>
</g>
<g>
</g>
<g>
</g>
<g>
</g>
<g>
</g>
<g>
</g>
<g>
</g>
<g>
</g>
</svg>
